<?xml version="1.0" encoding="utf-8"?>
<!-- Generator: Adobe Illustrator 22.1.0, SVG Export Plug-In . SVG Version: 6.00 Build 0)  -->
<svg version="1.1" id="Layer_1" xmlns="http://www.w3.org/2000/svg" xmlns:xlink="http://www.w3.org/1999/xlink" x="0px" y="0px"
	 viewBox="0 0 1000 841.6" style="enable-background:new 0 0 1000 841.6;" xml:space="preserve">
<style type="text/css">
	.st0{fill:#A2BADB;}
	.st1{fill:#FEFEFE;}
	.st2{fill:#0D0E10;}
	.st3{fill:#121416;}
	.st4{fill:#060707;}
	.st5{fill:#141516;}
	.st6{fill:#0E0F10;}
	.st7{fill:#101112;}
	.st8{fill:#121314;}
	.st9{fill:#111213;}
	.st10{fill:#121315;}
	.st11{fill:#181A1C;}
	.st12{fill:#0A0B0C;}
	.st13{fill:#0B0C0D;}
	.st14{fill:#0F1011;}
	.st15{fill:#0F0F11;}
	.st16{clip-path:url(#SVGID_2_);}
	.st17{clip-path:url(#SVGID_4_);fill:#FFFFFF;stroke:#000000;stroke-width:3;stroke-miterlimit:10;}
</style>
<g>
	<g>
		<path d="M288.2,0.2c2.3,0,4.6,0,6.9,0C380,5.3,461.9,24.7,541.7,53.3c100.9,36.2,195.2,85,280.4,150.3
			c56.2,43.1,106.3,92.1,144.8,152.1c12.3,19.1,22.8,39,31.4,60c0.9,2.2,3.4,4.5-0.7,6.9c-3.8,2.3-4.4-1-5.8-2.5
			c-50.9-51.7-109.2-93.4-172.6-128.2c-91.7-50.4-189.1-84.5-292.2-102.2c-45.2-7.7-90.9-11.7-136.8-11.1
			c-69.8,0.9-138.1,11.3-203.8,35.8c-5.2,1.9-8.8,1-12.3-3.3c-9.1-11.1-18.7-21.8-29.2-31.6c-24.4-22.9-54.3-32.6-86.8-36
			c-13.1-1.4-26.3-1.9-39.5-2.1c-7-0.1-8.8-2.7-6.6-9.3c16.9-49,50.4-82.5,96.8-104.1C147.1,10.3,187.9,3,229.7,0.2
			c2.3,0,4.6,0,6.9,0c3.2,0,6.4-0.1,9.6-0.1c10.3,0,20.7,0,31,0C280.9,0.1,284.5,0.1,288.2,0.2z"/>
		<path d="M338.8,825.5c-9.2-0.2-17.1-2.7-24.3-7.1c-36.2-21.9-63-51.8-77.1-92.1c-1.3-3.6-3-7.8-1.3-11.4c1.1-2.2,3.6-3.8,7.2-3.5
			c46.8,4.1,93.4,2.1,139.9-3.7c55.2-7,109.1-19.6,162.1-36.3c96.4-30.3,187.8-71.9,277-118.8c56.8-29.9,112.4-62.1,167.3-95.5
			c2.4-1.4,4.5-5.8,8.7-1.9c3.7,3.5,0.3,6.1-0.7,8.5c-13.7,32.5-35.3,59.6-59.6,84.5c-55.5,57-120.6,101.4-189.5,140.3
			c-87.4,49.4-179.5,87.7-276.7,113.1c-42.8,11.2-86.1,19.6-130.2,23.5C340.4,825.3,339.3,825.4,338.8,825.5z"/>
		<path d="M0.1,427.2c0-4.6,0-9.3,0-13.9C0.1,398,0,382.6,0,367.2c0-5.5,0.1-11.1,0.1-16.6c1.7-58,6.1-115.9,9.8-173.9
			c0.4-7,3.9-9.2,10.1-9.6c17.1-1.1,33.7,1.5,50.1,5.8c25.7,6.7,50.1,16.3,70.4,34.1c5.8,5.1,10.5,11,14.7,17.4
			c2.2,3.3,2.3,6.6,0.8,9.8c-12.1,24.4-16.9,50.8-20.8,77.3c-9,60.5-9.3,121.3-2.7,182c8.3,76.7,26.9,150.4,64.9,218.3
			c28,49.9,64.9,91.5,113.5,122.3c1.7,1.1,4.6,1.4,3.2,5c-1.2,3.1-3.2,2.7-5.5,2.2c-65.8-16.2-127.4-41.1-179.8-85.4
			c-53.7-45.4-87-103.5-106.2-170.4C7.7,533.7,2,480.7,0.1,427.2z"/>
		<path class="st0" d="M737.1,211.8c-30.9-15.8-63.1-28.6-95.8-40.1c-68.6-24.1-139-40.4-211.4-47.2c-72.1-6.8-143.8-5.5-214.3,13.5
			c-24.4,6.6-47.9,15.6-70,27.9c-2.8,1.5-4.8,2.5-7.9,0.1c-22.9-17.7-49.7-25.2-77.9-28c-12.2-1.2-24.4-2-36.7-2.4
			c-5.1-0.2-5.6-1.2-3.9-5.8c13.2-35.6,36.3-63.1,68.3-83.2c32.2-20.4,68-31,105.4-36.4c73.6-10.7,146.4-3.5,218.5,12.3
			c140.5,30.7,269.5,87.5,386.6,171C856.4,235,908.7,283.1,950.5,342c11.9,16.8,22.7,34.3,31.7,52.9c0.7,1.4,1.3,2.7,2.6,5.3
			c-6.3-2.8-7.2-9.3-12.5-10.9c-10-9-18.3-19.5-27.3-29.4c-9.5-10.4-20.8-18.9-30.6-29.1c-3.7-4.4-9-7.1-12.8-11.4
			c-10.7-9.1-21.7-17.7-32.9-26c-1.8-1.8-4-3.1-5.9-4.6c-7.5-5.7-15.1-11.3-23.1-16.5c-3.3-2.4-6.8-4.7-10.2-6.9
			c-8.7-5.6-17.2-11.6-26.5-16.2c-16-9-31.3-19.2-48-26.9C749.6,217.8,742,217,737.1,211.8z"/>
		<path class="st1" d="M962,382.5c-3.9-0.9-6-4.2-8.8-6.5c-80.6-67.7-171.8-116.6-270.5-151.8c-61.8-22.1-125.2-37.6-190.4-45.5
			c-104.3-12.6-206.9-6.6-306.5,29.5c-3.7,1.3-5.7,0.8-8.2-2.2c-10.3-12.5-21-24.7-33.9-35.5c16-9.8,32.8-16.9,50.2-22.8
			c48.2-16.5,98-23.2,148.7-23.8c136.6-1.8,265.6,30.4,388.8,87.9c1.2,0.6,2.6,1,3.8,1.5c7.2,1.1,13.1,5,19.2,8.5
			c16.4,8.2,32.2,17.6,48.1,26.7c9,5.2,17.7,10.9,26.5,16.5c3.2,2.6,6.9,4.5,10.2,7.1c8.2,5,15.6,10.9,23.3,16.5
			c1.9,1.7,4.3,2.6,6.1,4.6c11.3,8.4,22.3,17.2,33.1,26.2c3.7,4.4,9.1,7,12.9,11.5c15.7,14.4,31.3,28.8,45.1,45.1
			C961.2,377.7,964.7,379.1,962,382.5z"/>
		<path class="st2" d="M962,382.5c-3.1-7.6-9.5-12.6-14.9-18.2c-10.9-11.2-22.2-21.9-33.4-32.8c-0.3-1.5,0.2-2.1,1.8-1.7
			c12.8,12.1,26,23.6,37.7,36.9c5.5,6.3,10.5,13.2,17.1,18.6c1.2,1,2.5,2.2,2.1,4.1C967,389.8,966,383.8,962,382.5z"/>
		<path class="st3" d="M753.9,222.7c-6.5-2.6-12.7-5.7-18.6-9.4c0.6-0.5,1.3-1,1.9-1.5c6.5,2.4,12.9,5.4,18.6,9.3
			C755.5,222.1,754.6,222.2,753.9,222.7z"/>
		<path class="st0" d="M968.2,480.1c6.9-5.2,13.9-10.3,21.7-16.2c-0.4,4.8-2.3,7.6-3.9,10.6c-19.3,36-46.5,65.6-76.4,92.8
			c-59.6,54.3-127,97.3-198.2,134.5c-82.5,43.1-168.6,76.6-259.2,98.6c-34.9,8.5-70.2,14.5-105.9,18.6c-9.8,1.1-18.8-0.4-27.5-5
			c-27.7-14.9-47.6-37.7-65.2-64.6c9.4-1.6,17.9-0.8,26.3-1c80.6-2.5,159.8-14.5,237.6-35.5c0.9-0.2,1.7-0.7,2.6-1
			c8.3-5.3,18.1-6.5,27.3-9.4c38.3-12.1,76.3-25.1,113.2-41.1c15.2-6.6,30.9-12.3,45.2-20.9c29.8-13.9,59.2-28.5,87.7-44.9
			c14.8-8.5,29.5-17.4,44.1-26.3c22.3-13.6,44-28.1,65.4-43.1c9.9-6.8,19.5-14,29.3-20.9c9.6-6.5,18.6-14,28.1-20.7
			C963,482.9,965.3,481,968.2,480.1z"/>
		<path class="st1" d="M516.9,710.6c-21.4,4.9-42.7,10.3-64.1,14.7C391,738,328.6,745.1,265.5,745.7c-15,0.2-15,0-20.3-14.1
			c-5.5-14.6-5.5-14.4,9.9-13.5c48,2.9,95.8,0.3,143.3-6.7c114.8-16.8,222.6-56.1,327.4-104.4c73-33.7,143.6-71.9,213-112.7
			c2.2-1.3,4.5-2.4,6.7-3.6c1.3-0.5,1.9,0.2,2.3,1.2c-3.2,6.8-10.4,9-15.5,13.6c-9.8,6.9-19.5,14.1-29.4,21
			c-21.5,14.9-43.4,29.1-65.4,43.1c-17.3,10.3-34.4,20.7-51.9,30.5c-25.8,14.4-52.1,28.1-79,40.4c-21.4,11.4-43.9,20.4-66.3,29.5
			c-32.7,13.3-66,24.7-99.8,34.7C532.6,707.2,525,710,516.9,710.6z"/>
		<path class="st4" d="M516.9,710.6c26.8-8.4,53.9-16.1,80.4-25.5c37.1-13.3,73.4-28.8,109.3-45.1c0.8,0.5,0.8,1,0.1,1.5
			c-0.4,2.2-2.5,2.6-4.1,3.3c-58.4,27.4-118.7,49.9-180.9,67.1c-0.4,0.1-0.9,0-1.4,0C519.1,711.5,518,711,516.9,710.6z"/>
		<path class="st5" d="M931.5,504.9c5.2-4.1,10.4-8.2,15.6-12.3c0.7-2.8,3.6-3.5,5.3-5.4c5.6-1.7,9.1-7.9,15.9-6.9
			c-11.1,9.5-22.9,18.1-35,26.4C932.3,506.3,931.7,505.8,931.5,504.9z"/>
		<path class="st0" d="M260.3,806.7c9.9,8.5,21.5,14.8,31.8,23c-11.5-1.7-22.3-5.5-33-9.2c-51.5-17.7-98.7-42.8-138.8-80.4
			c-40-37.6-67.4-83.1-85.1-134.7C17.4,554.1,9.9,500.9,7.1,446.9c-3.5-65.5-0.5-130.9,4-196.3c1.6-23.1,3.3-46.2,4.3-69.3
			c0.3-6.8,2.6-8.8,8.9-8.7c27,0.2,52.6,6.8,77.3,17.3c18.2,7.7,18,7.8,13.1,27c-15.2,60.3-25.4,121.3-27.5,183.5
			c-2.7,77.8,6.8,153.7,35.5,226.6c0.4,1.1,1,2.1,1.5,3.1c3,2.5,4,6.2,5.5,9.5c6.7,14.5,13.6,28.9,21.6,42.7
			c8.6,15.5,18.7,30,29.4,44.2c7.2,9.8,15.1,19.1,23.5,27.9c16.5,16.9,33,33.7,52.2,47.6C258,803.3,259.6,804.6,260.3,806.7z"/>
		<path class="st1" d="M125.4,627.3c-10.3-28.2-19.3-56.8-25.1-86.3c-9.9-50.9-12.8-102.2-9.9-154c3.4-61.4,14.2-121.6,30-181
			c1.1-4.3,2.3-5.3,6.1-2.4c8.6,6.4,16.6,13.4,22.5,22.4c1.4,2.1,2.5,3.9,1,6.8c-11.7,23.7-16.6,49.4-20.5,75.2
			c-9.4,62.8-9.8,125.9-2.7,188.9c8.8,79.2,28.7,155.2,69.2,224.8c14.6,25.1,32.3,47.8,51.8,69.3c0.4,0.6,0.4,1.2,0.1,1.9
			c-2.9,0.9-4.7-0.9-6.7-2.5c-13.7-11.2-26.1-23.7-38.4-36.4c-7.5-9.3-15.3-18.3-22.7-27.6c-10.8-14.6-20.8-29.7-30.4-45.1
			c-7.7-15-15.3-30.1-22-45.6C126.6,633,126.4,630.1,125.4,627.3z"/>
		<path class="st6" d="M203.4,753.5c14.1,13.9,28.1,28,44.2,39.6c3,0.9,4.4,4.2,7.3,5.3c2.2,2.5,7,3.4,5.3,8.3
			c-21.1-14.7-40-32-57.1-51.2C202.6,754.8,202.7,754.1,203.4,753.5z"/>
		<path class="st6" d="M125.4,627.3c8.4,17.9,16.8,35.8,25.2,53.7c0.5,0.9,0.4,1.8-0.4,2.5c-10.6-16.8-19-34.8-26.1-53.3
			C124.6,629.2,125,628.2,125.4,627.3z"/>
		<path class="st7" d="M753.9,222.7c0.6-0.5,1.3-1,1.9-1.6c14,6.1,27.1,14,40.1,22.1c2.6,1.6,5.3,3.2,8,4.8
			c-0.1,1.2-0.2,2.3-1.8,1.4C786,240.5,769.9,231.6,753.9,222.7z"/>
		<path class="st6" d="M900.9,320.2c-11.1-8.8-22.1-17.6-33.2-26.3c-0.4-1.6,0.2-2.2,1.8-1.8c11.6,8.1,22.7,16.8,33.1,26.4
			C902.9,320,902.4,320.7,900.9,320.2z"/>
		<path class="st8" d="M802,249.4c0.6-0.5,1.2-0.9,1.8-1.4c9.4,4.6,18,10.4,26.5,16.4c0.2,1.4-0.3,2.1-1.8,1.6
			C819.7,260.5,810.9,254.9,802,249.4z"/>
		<path class="st9" d="M862.3,289.6c-7.9-5.6-15.7-11.1-23.6-16.7c-0.1-1.4,0.3-2.1,1.8-1.6c8.3,5,16.2,10.5,23.5,16.7
			C863.8,288.9,863.2,289.4,862.3,289.6z"/>
		<path class="st10" d="M900.9,320.2c0.6-0.5,1.2-1.1,1.7-1.6c4.6,3.3,8.9,6.9,12.7,11.1c-0.6,0.6-1.2,1.2-1.8,1.7
			C909.4,327.7,905.2,324,900.9,320.2z"/>
		<path class="st11" d="M840.5,271.2c-0.6,0.5-1.2,1.1-1.8,1.6c-3.7-1.8-7.1-4-10.1-6.8c0.6-0.5,1.2-1.1,1.8-1.6
			C834,266.3,837.5,268.4,840.5,271.2z"/>
		<path class="st6" d="M862.3,289.6c0.6-0.5,1.2-1.1,1.8-1.6c2.2,0.9,4.1,2.3,5.6,4.2c-0.6,0.6-1.2,1.2-1.8,1.8
			C865.9,292.5,864.1,291,862.3,289.6z"/>
		<path class="st12" d="M706.7,641.5c0-0.5-0.1-1-0.1-1.5c24.8-13.2,50.4-24.9,74.8-39c18.5-10.7,37-21.5,55.5-32.2
			c1.6-0.6,1.9,0.2,1.8,1.5c-29.1,18.9-59.2,35.8-90.1,51.4c-12.2,6.2-24.6,12.1-36.8,18.3C710.1,640.9,708.6,641.9,706.7,641.5z"/>
		<path class="st13" d="M838.6,570.3c-0.6-0.5-1.2-1-1.8-1.5c21.8-14.4,43.6-28.7,65.4-43.1c1.5-0.5,2,0.2,1.8,1.6
			C882.9,542.6,861.1,557,838.6,570.3z"/>
		<path class="st14" d="M904,527.3c-0.6-0.5-1.2-1.1-1.8-1.6c9.7-6.9,19.5-13.9,29.2-20.8c0.6,0.5,1.2,1.1,1.8,1.6
			C923.9,514,914.2,520.9,904,527.3z"/>
		<path class="st15" d="M150.2,683.4c0.1-0.8,0.3-1.6,0.4-2.5c10.2,14.9,20.3,29.8,30.5,44.8c0.5,1.5-0.2,2-1.6,1.7
			C168.5,713.6,158.4,699.2,150.2,683.4z"/>
		<path class="st14" d="M179.6,727.5c0.5-0.6,1.1-1.2,1.6-1.7c7.3,9.3,16.1,17.5,22.3,27.8c-0.1,0.7-0.2,1.4-0.3,2
			C194.6,746.8,186.6,737.6,179.6,727.5z"/>
	</g>
</g>
<g>
	<g>
		<defs>
			<rect id="SVGID_1_" x="300" y="220.8" width="400" height="400"/>
		</defs>
		<clipPath id="SVGID_2_">
			<use xlink:href="#SVGID_1_"  style="overflow:visible;"/>
		</clipPath>
		<g class="st16">
			<defs>
				<rect id="SVGID_3_" x="300" y="220.8" width="400" height="400"/>
			</defs>
			<clipPath id="SVGID_4_">
				<use xlink:href="#SVGID_3_"  style="overflow:visible;"/>
			</clipPath>
			<path class="st17" d="M579.6,479.9c-5.1,4.8-9.8,10.2-13,16.4c-3,5.9-4.4,12.5-4.1,19.1c0.2,4.3,0.6,8.5,0.7,12.8
				c0.1,4.6-0.1,9.1-0.4,13.7c-0.5,9-1.4,18-1.8,27.1c-0.4,8.1,0.9,17.4-4.6,24.2c-4.2-19.4-4.4-39.3-5.3-59
				c-0.3-5.7-0.6-11.4-1-17.1c-6.9,8.3-14.9,16.3-16.3,27.6c-0.4,3.4-0.1,6.8,0,10.2c0.1,3.7,0.1,7.3,0,11
				c-0.2,7.5-0.8,15.1-1.4,22.6c-0.3,4.2-0.7,8.4-1,12.6c-0.2,2-0.1,4.3-0.6,6.3c-0.5,2-1.6,3.8-2.7,5.4
				c-6.8-18.9-2.3-39.5-6.6-58.8c-8.2,8.5-15.1,18.2-21.9,27.7c-5.5-10.7-14.6-18.8-21.8-28.3c-0.6,20.1-2.3,40.2-4.3,60.2
				c-4.9-2.7-5.2-7.6-5.1-12.6c0.1-3.3-0.3-6.6-0.6-9.9c-0.3-3.9-0.7-7.7-1-11.6c-0.6-7.9-0.8-15.8-0.3-23.7c0.2-3.9,0-7.7-0.6-11.5
				c-0.5-3.3-1.1-6.7-2.4-9.8c-2.9-6.8-8.8-11.9-13.8-17.1c-1.5,2.7-1.4,5.4-1.3,8.4c0.2,3.6,0.1,7.2,0.1,10.7
				c-0.1,7.4-0.5,14.8-0.9,22.2c-0.5,7.6-1.1,15.2-1.6,22.7c-0.1,1.8-0.3,3.5-0.4,5.3c-0.1,1.4-0.1,2.9-0.5,4.2c-0.3,1-0.9,1.8-2,2
				c-0.9,0.2-1.9,0-2.1-1c-0.2-0.8,0.1-1.6,0-2.4c-0.2-1.6-1-3.1-1.4-4.7c-0.8-3.3-1-6.7-1-10.1c-0.1-7-0.2-13.9-0.7-20.9
				c-0.5-7.5-1.2-15-1.4-22.5c-0.1-3.7-0.1-7.3,0-11c0.1-3.2,0.5-6.4,0.4-9.7c-0.2-6.2-1.9-12.3-5.1-17.7c-1.7-2.8-3.7-5.3-6-7.6
				c-2-2.1-3.7-4.4-5.5-6.5c-0.4,21.9-1.1,43.9-3.1,65.7c-0.6,6.3-1.3,12.6-2.1,18.9c-2.4-3-4-6.5-4.7-10.3
				c-0.6-3.1-0.6-6.2-0.7-9.3c-0.3-8.7-0.9-17.3-1.3-26c-0.4-8.7-0.7-17.4-0.8-26c-0.1-8.5-0.2-16.9-1-25.4c-0.2-1.9-0.2-4-0.8-5.9
				c-0.4-1.5-1.3-2.8-2.3-4c-2.3-2.8-5.1-5.2-6.8-8.4c-2.1,10.7-2.2,21.5-2.5,32.3c-0.3,11.8-0.7,23.6-0.9,35.4
				c-0.2,11.8-0.4,23.5-0.9,35.3c-0.5,11.8-1.1,23.6-1.5,35.5c-0.4,11.1,1.4,23.5-4.5,33.6c-0.9-1.1-2-2.2-2.5-3.6
				c-0.5-1.6,0-3.5,0-5.1c0-3.4-0.4-6.8-0.9-10.1c-0.5-3.4-0.9-6.7-0.9-10.2c0-3.7,0-7.5-0.1-11.2c-0.1-14.6-0.6-29.2-1.1-43.8
				c-0.5-14.7-1.1-29.4-1.2-44.2c0-14.5-0.3-29-1-43.5c-0.2-4-0.3-8.1-0.6-12.2c-0.2-3.7-0.1-7.8-1-11.5c-1.5-5.9-7.1-9.6-10.7-14.1
				c-2.3,9.4-2.3,19.1-2.3,28.8c0,9.8-0.4,19.5-0.7,29.3c-0.6,19.7-1.2,39.3-2.3,59c-0.3,4.9-0.6,9.8-0.6,14.7
				c-0.1,4.5-0.6,9.1-3.4,12.8c-3.8-3.2-3.5-9.3-3.8-13.8c-0.6-6.3-0.8-12.7-1.1-19c-0.5-12.7-0.9-25.5-1.2-38.2
				c-0.3-12.7-1.2-25.3-1.5-38c-0.3-12.7,0.1-25.3-0.8-38c-0.4-6.9-1.1-13.9-1.6-20.8c-0.3-5.2-5.4-7.6-8-11.6c-2,1.4-2.4,3.6-2.4,6
				c0,3,0.2,6,0.2,9c0.1,6.4,0,12.7-0.1,19.1c-0.3,12.8-0.9,25.6-1.4,38.4c-1,25.6-1,51.1-2.6,76.6c-0.4,6.5-1,13.1-1.1,19.6
				c-0.1,6.2-0.6,12.4-4,17.8c-3.6-5.6-3.9-12.1-4.1-18.5c-0.2-7.3-0.8-14.6-1.1-22c-0.8-15.1-1.4-30.2-1.9-45.3
				c-0.5-15.1-0.8-30.3-1.1-45.4c-0.3-15.1-1.8-30-2.4-45.1c-0.3-8.4-0.7-16.9-1.3-25.3c-0.3-4.2-0.7-8.4-1.2-12.6
				c-0.2-1.5-0.2-3-0.9-4.4c-0.7-1.3-0.8-2.3,0-3.7c4.9,5.9,9.9,11.7,14.8,17.6c1.2,1.4,2.4,2.9,3.6,4.3c0.6,0.7,1.1,1.3,1.7,2
				c0.5,0.6,1.1,1.8,2,1.5c1.3-0.5,1-2.1,0.9-3.2c0-2-0.1-4.1-0.1-6.1c0-7.7,0.2-15.5,0.6-23.2c0.4-7.6,0.7-15.1,1.4-22.7
				c0.4-3.9,0.7-7.7,1.3-11.6c0.2-1.3,0.7-2.6,1.9-3.1c0.9-0.4,2.1-0.3,2.4,0.8c0.3,1,0.1,2.3,0.2,3.3c0.2,1.9,0.4,3.9,0.6,5.8
				c0.4,3.9,0.9,7.7,1.3,11.6c0.8,7.7,0.7,15.5,1,23.2c0.3,7.6,0.9,15.2,1.4,22.9c0.2,4.3,0.4,8.6,0.4,12.9c0,3.3-0.3,6.4,1.3,9.4
				c2.8,5.3,8.2,8.7,10.9,14c2.2-11.4,2.6-23,2.6-34.6c0-11.7-0.1-23.5,0.2-35.2c0.3-12.2,0.8-24.5,1.3-36.7
				c0.4-12.1,0.6-24.2,1-36.3c0.3-6.8,0.6-13.6,1.3-20.4c0.3-2.6,0.4-5.4,1.2-7.9c0.8-2.6,1.8-5,2.5-7.6c0.8,2.9,1.9,5.7,2.5,8.7
				c0.6,3.1,0.1,6.4,0.2,9.5c0.2,7.6,1.1,15.2,1.6,22.8c1.1,15.3,0.8,30.8,1,46.2c0.2,15.6,0.7,31.2,1.3,46.8
				c0.6,15.5,0.5,31.1,0.6,46.6c0,4.1,0.1,8.2,0.2,12.3c0.1,3.2,0.5,6.5,2.1,9.3c1.5,2.8,4.1,4.9,6.1,7.3c2.3,2.9,4.6,5.9,6.9,8.7
				c-0.4-13.6,1.1-27.3,1.5-40.9c0.2-7.5,0.6-15,1.1-22.4c0.3-3.8,0.6-7.5,1-11.3c0.3-3.2,0.4-6.6,1.2-9.7c0.7-2.5,3.3-2.4,3.9,0
				c0.4,1.3,0.4,2.7,0.5,4.1c0.2,1.9,0.4,3.8,0.6,5.8c0.7,7.5,1.5,15,1.9,22.5c0.4,7.4,0.1,14.7,0.3,22.1c0.2,7.4,0.8,14.8,1.2,22.3
				c0.2,4.1,0.4,8.2,0.5,12.3c0,2.1,0,4.2,0,6.3c0,1.8-0.3,3.6,0,5.4c0.9,5.3,6.7,7.7,8.7,12.4c3.9-4.2,3.1-10,3.1-15.3
				c0.1-6.6,0.2-13.3,0.2-19.9c0.1-13.4,0.2-26.8,0.6-40.1c0.3-13.3,1-26.6,1.5-39.9c0.5-13.4,0.9-26.8,1.9-40.1
				c0.2-3,0.7-5.9,1.3-8.9c0.3-1.4,0.6-2.9,0.5-4.4c0-1-0.3-2.1,0.1-3.1c0.8-1.8,3.6-1.3,4.1,0.5c0.6,2.7,1,5.5,1.3,8.2
				c1.7,12.8,1.3,25.8,1.9,38.7c0.6,13.4,1.5,26.8,1.5,40.2c0,13.4,0.2,26.7,0.7,40.1c0.5,13.3,1.1,26.5,1.1,39.8
				c0,6.6,0.1,13.1,0.6,19.7c0.3,3,0.2,6.2,0.8,9.1c0.5,2.3,1.8,4.2,3.4,5.8c1.6,1.7,3.4,3.3,4.8,5.1c3.2-22.4,2.5-45.2,3.2-67.7
				c0.4-11.5,1-23,1.4-34.5c0.4-11.3,0.6-22.6,1.2-33.9c0.3-6.1,0.9-12.2,1.3-18.4c0.3-5.7,0.9-11.5,3.7-16.6
				c3.8,4.5,4.2,10.3,4.2,16c-0.1,6.4,0.8,12.8,1.3,19.2c1.2,14.2,0.7,28.4,1.2,42.7c0.5,14.3,1.4,28.6,1.7,42.9
				c0.1,7.1-0.1,14.2,0.1,21.3c0.1,3.4,0.3,6.9,0.6,10.3c0.3,3.5,0.9,7,1.2,10.5c0.5,7.8,0,15.6,0.5,23.4c0.2,3.9,0.8,7.7,1.7,11.4
				c0.7,2.8,1.6,5.4,4.2,7.1c2.2-17.4,2.6-34.9,3.3-52.4c0.7-17.9,0.7-35.8,1.2-53.7c0.2-8.9,0.8-17.7,1-26.5
				c0.2-8.9,0-17.9,0.1-26.8c0.1-8.9,0.7-17.6,1.3-26.5c0.5-8.9,0.7-17.9,1-26.8c0.2-8.9,0.5-17.9,1.2-26.8c0.3-4.4,1-8.6,1.8-12.9
				c0.1-0.5,0.2-2.8,0.6-3.1c0.4-0.3,1.7,0.2,2.1,0.4c1.1,0.6,1.5,1.8,1.7,3c0.6,4.4,0.8,8.9,1.1,13.3c0.3,4.4,0.5,8.8,0.7,13.2
				c0.3,9,0.5,17.9,0.8,26.9c0.3,8.9,0.9,17.7,1.2,26.5c0.3,8.9,0.1,17.9,0.3,26.8c0.1,8.9,1,17.8,1.3,26.7
				c0.3,8.8,0.3,17.7,0.3,26.5c0,8.9,0.2,17.8,0.7,26.7c0.6,8.8,0.3,17.6,0.4,26.4c0,4.5,0.1,8.9,0.5,13.4c0.4,4.2,1,8.3,1.2,12.5
				c0.4,8.3-0.1,16.6,0.7,24.9c0.4,4.2,1.2,8.3,2.5,12.3c1.5-17.8,1.5-35.6,2-53.4c0.5-18.6,1.2-37.2,1.7-55.8
				c0.5-18.5-0.3-37,0.9-55.5c0.3-4.6,0.8-9.2,0.9-13.8c0.2-4.6,0.2-9.2,0.2-13.8c0-9.3,0.1-18.4,1-27.7c1.7-17.8,0.2-35.8,3.5-53.5
				c0.4-2.3,0.9-4.5,1.5-6.7c2.7,2.4,3.4,5.5,3.7,9c0.4,4.2,0.8,8.4,1.1,12.6c0.5,8.5,0.4,17,0.6,25.4c0.4,17,1.1,33.9,1.8,50.9
				c0.7,16.9,0.2,33.8,0.9,50.7c0.6,16.9,1.6,33.9,2.2,50.8c0.4,9.5,0.7,19,1,28.5c0.3,9.3,0.7,18.6,1.7,27.9c4.2-1.7,5.8-5,5.8-9.4
				c0-6.4,0-12.9,0.3-19.3c0.5-12.9,1.6-25.7,1.9-38.5c0.3-13,0.2-25.9,1.1-38.9c0.9-12.9,1.2-25.9,1.6-38.8
				c0.4-12.7,1.3-25.4,1.8-38.1c0.1-3,0.3-6.1,0.6-9.1c0.4-2.9,1.1-5.6,1.8-8.4c0.4-1.4,1.5-4,3.4-2.3c0.7,0.7,0.8,1.9,1,2.8
				c0.2,1.5,0.3,3,0.4,4.5c1.2,12.8,2.5,25.6,2.7,38.5c0.2,13,0.8,25.9,1.2,38.9c0.4,12.8,0.4,25.6,1,38.3
				c0.6,12.6,1.5,25.2,2.3,37.7c0.2,3.2,0.4,6.3,0.6,9.5c3.8-3.9,7.6-8.2,9.2-13.5c0.9-3,0.8-6,0.8-9c-0.1-3.5-0.1-7.1-0.1-10.6
				c0-14.7,0.6-29.4,1.1-44c0.5-14.7,1-29.5,1-44.3c0-7.3,0-14.6,0.3-21.9c0.3-7.3,1.1-14.5,1.5-21.8c0.5-8.1,0.7-16.3,1.1-24.4
				c0.2-4,0.5-8,0.9-12c0.2-1.6,0.4-2.9,1.1-4.4c0.7-1.5,1.5-2.9,2-4.5c4.7,9.6,4,20.1,4.5,30.4c0.5,11.7,0.9,23.5,1.3,35.2
				c0.4,11.6,1.1,23.3,1.2,34.9c0.2,11.6-0.1,23.2,0.5,34.8c0.3,6.5,1,13.1,1.3,19.6c0.3,6.6,0.4,13.1,0.6,19.7
				c5.5-3.2,8.9-8.4,10.3-14.6c0.7-2.9,1-5.9,1.2-8.9c0.3-3.6,0.6-7.3,0.7-10.9c0.1-8.8-0.3-17.7,0-26.5c0.3-8.9,0.8-17.8,1.4-26.7
				c0.4-5,0.7-10,1.1-15c0.2-2.4,0.1-4.9,0.6-7.3c0.5-2.2,1.7-4.2,3-6c4.3,21.9,5.5,44.3,5.7,66.6c0.1,6.3,0,12.6,0,18.9
				c6.4-5,12.2-10.4,14-18.6c1-4.7,1.2-9.6,1.4-14.3c0.3-7.1,0.5-14.2,0.6-21.3c0.2-14,0.1-28,0.3-42.1c0.2-13.9,1-27.9,1-41.8
				c0-7,0-14,0.4-21c0.4-6.8,1.3-13.5,1.4-20.3c0.2-6.9,0-13.9,0.6-20.8c0.3-3.5,0.7-6.9,1.4-10.3c0.3-1.4,0.9-5.1,3.2-3.7
				c1.9,1.1,1.5,5.2,1.6,6.9c0.2,3.5,0.5,6.9,0.7,10.4c0.4,7.1,0.8,14.2,1.2,21.3c0.7,14,1.4,28,1.6,42.1c0.2,14,0.1,28,0.7,42
				c0.3,7.1,0.8,14.2,1,21.2c0.1,7,0.1,14,0.3,21c0.1,3.4,0.2,6.9,0.5,10.3c8.9-5.6,13.2-14.7,14.3-24.9c0.6-5.6,0.3-11.2,0.4-16.8
				c0.1-6.9,0.5-13.8,0.9-20.7c0.4-6.8,0.8-13.6,0.9-20.5c0.1-3.4,0.3-6.5,0.9-9.9c0.3-1.4,0.5-2.9,0.6-4.4c0.1-1.5-0.3-3.2,0.3-4.6
				c0.8-1.7,3.6-2.7,3.9-0.3c0.4,2.6,1.4,5.1,1.8,7.8c1,6.1,0.7,12.4,0.9,18.6c0.7,14.4,2.1,28.8,2.1,43.2
				c7.6-9.2,15.2-18.3,22.8-27.5c-3.9,26.6-4.4,53.4-5.3,80.2c-1,27.7-1.9,55.4-3.1,83.1c-0.6,13.5-0.5,27-1.9,40.5
				c-0.3,3.3-0.8,6.7-1.4,10c-0.3,1.5-0.6,3-0.9,4.6c-0.2,1-0.2,2.3-0.9,3.1c-0.6,0.7-1.6,0.8-2.3,0.3c-0.9-0.6-1.1-1.9-1.2-2.9
				c-0.4-3.4-0.6-6.8-1-10.2c-0.7-6.8-1.5-13.7-1.8-20.5c-0.3-6.9-0.3-13.8-0.5-20.7c-0.4-13.8-0.9-27.6-1.4-41.4
				c-0.5-13.8-0.4-27.6-0.7-41.3c-0.2-6.7-0.8-13.3-1.3-20c-0.5-6.4-0.5-12.8-0.7-19.2c-0.1-3.3-0.2-6.5-0.5-9.8
				c-3.2,3.4-6.7,6.8-8.7,11.1c-2.4,5-1.6,10.6-1.5,15.9c0.1,13-0.3,26-0.8,38.9c-1,25.7-1.2,51.4-2.7,77.1
				c-0.4,6.9-1.1,13.7-1.5,20.6c-0.4,6-1,12.1-4.6,17.1c-2.3-18.7-3.7-37.6-4.6-56.4c-0.9-19-1.4-38.1-1.9-57.2
				c-0.3-10.9-0.5-21.8-0.9-32.7c-3.3,4.3-7.6,8-10.4,12.7c-1.3,2.2-2.3,4.6-2.6,7.1c-0.5,3.5-0.1,7.1-0.1,10.6
				c0.2,15.4-0.2,30.8-0.7,46.2c-0.5,15.4-1.1,30.8-1.3,46.2c-0.1,14.9,0.5,29.9-1.3,44.8c-1,8.3-0.7,16.7-1,25.1
				c-0.2,4.1-0.5,8.2-1.2,12.2c-0.2,1.2-0.4,2.7-1,3.8c-0.7,1.2-2,2.1-3.2,2.8c-2.2-22.5-3.5-45-4.4-67.6c-0.9-22.5-1.3-45-1.9-67.5
				c-0.3-12.8-0.7-25.5-1.2-38.3c-3.6,4-7.4,8.1-9.7,13c-1.1,2.4-1.9,5.1-2.1,7.7c-0.3,3.4,0.2,6.8,0.4,10.1
				c0.6,14.8-1,29.6-1.8,44.4c-0.4,7-0.2,13.9-0.5,20.9c-0.1,3.4-0.5,6.8-1.3,10.1c-0.3,1.4-1,2.8-1.2,4.3c-0.1,0.8,0.2,1.6-0.1,2.4
				c-0.3,0.9-1.1,1.1-2,0.9c-1.3-0.3-1.9-1.4-2.2-2.5c-0.4-1.6-0.4-3.3-0.5-5c-0.1-1.8-0.3-3.7-0.5-5.5c-0.6-7.4-1.4-14.7-1.8-22.1
				c-0.2-4.1-0.2-8.1-0.4-12.2c-0.2-3.6-0.5-7.2-0.8-10.8C579.5,495.4,578.8,487.7,579.6,479.9"/>
		</g>
	</g>
</g>
<path d="M971.2,386.1c1.3,1.1,3.6,3.7,4.8,5.7l-5-1L971.2,386.1z"/>
</svg>
