<svg id="Layer_1" data-name="Layer 1" xmlns="http://www.w3.org/2000/svg" viewBox="0 0 276.71 289.93"><defs><style>.cls-1{fill:#17172f;}.cls-2{fill:#a6a7ae;}.cls-3{fill:#fdfdfd;}.cls-4{fill:#fcfcfb;}.cls-5{fill:#fafbfb;}.cls-6{fill:#fafbfa;}.cls-7{fill:#a5a7ae;}.cls-8{fill:#f9f9fa;}.cls-9{fill:#a0a1af;}.cls-10{fill:#a1a2b0;}.cls-11{fill:#a3a5b0;}.cls-12{fill:#a2a4ae;}.cls-13{fill:#f4f6f8;}.cls-14{fill:#f1f4f7;}.cls-15{fill:#9fa0af;}.cls-16{fill:#e9ecef;}.cls-17{fill:#999aab;}.cls-18{fill:#9798a6;}.cls-19{fill:#c3c5cf;}.cls-20{fill:#838397;}.cls-21{fill:#88889e;}.cls-22{fill:#35363f;}.cls-23{fill:#c6c9d6;}.cls-24{fill:#17192e;}.cls-25{fill:#19192f;}.cls-26{fill:#18182f;}.cls-27{fill:#1a1a2f;}.cls-28{fill:#bab9ca;}</style></defs><title>AnonymusRaccoon</title><path class="cls-1" d="M151,295c-2.47-2.2-5.76-2.12-8.67-3-21.14-6.51-40.54-16.07-56-32.33-9.71-10.22-16.57-22.07-18.67-36.26a8.94,8.94,0,0,0-3.35-5.8c-8.1-7-15.58-14.58-21.27-23.71-1.69-2.7-3.06-5.29-7.25-2.68,3.52-3,3-6.08,1.53-9.39-.65-1.49-1.3-3.37-1-4.84,1.46-6.26-2.52-9.55-6.29-13.38C19.32,152.67,11,140.17,6.59,125.25c-.27-.94-.85-1.85-.1-3l10.08,5.35c-4-13.72-6.57-26.74-2.05-40.34,2.84,1.43,5.6,2.94,8.44,4.24,10.75,4.93,20,2,26.09-8.11,3.31-5.51,4.45-10.52,1-17-7.42-14-10.81-29-7.17-44.9C46.63,5.13,50,3.22,66,7.82c11.44,3.28,22.24,8,31.56,15.54a5.74,5.74,0,0,0,5.46,1.17c22.57-5,45.14-5.54,67.62.48a6.08,6.08,0,0,0,5.87-1.3C190,13.52,205.27,7.88,221.78,5.17c2.58-.43,3.87.51,5.17,2.64,8.47,14,8.66,28.68,4.4,43.86a80.75,80.75,0,0,1-8,19.32c-1.42,2.4-1.7,4.56-.38,7,.55,1,.95,2.12,1.46,3.17,6.22,12.52,16.55,15.89,29,9.47,7.39-3.8,7.47-3.81,8.83,4.51a57,57,0,0,1-4.1,32.27l11-5.69A74.39,74.39,0,0,1,262.72,138c-2.44,4.86-5.25,9.55-8,14.57a51.18,51.18,0,0,0,6.46,0c8.09-1.09,13.16,3,17,9.49,7.57,12.9,5.81,34.08-4.08,46.12a71.13,71.13,0,0,1-10.48,10.72,14,14,0,0,1-1.32-9.85c1.9-10.17.49-19.59-7.24-27.23a25.36,25.36,0,0,0-3.53-2.73c-1.67-1.16-2.3.42-3.2,1.3-1.52,1.51.18,1.91.91,2.51,7.36,6.1,10.52,14,9.85,23.4-.36,5.15-2.1,9.55-6.9,12.53-9.36,5.82-9.49,14.9-7.82,24.36.48,2.73,1.45,5.37,2.32,8.49-14.53-4.11-26.42-11.36-35-24.12-7.58,11.18-15.89,20.89-26.06,28.87A73.31,73.31,0,0,1,175,263.8c-3.53,1.87-3.54,4.05-2.56,7.31,2.09,7,7.08,11.93,11.38,17.41,1.71,2.17,4.34,3.61,5.16,6.48Z" transform="translate(-6.12 -5.07)"/><path class="cls-2" d="M21.92,119.09a32.13,32.13,0,0,1-2.44-17.93c.38-3.14,1.38-3.22,4.09-2.32C45,106,58.8,89.1,60.91,71.06a3.79,3.79,0,0,0,.52-5.25,6.09,6.09,0,0,1-1-5.55,18.81,18.81,0,0,0,1.3-4.78c.22-1.55.85-3.26,2.53-3.29,3.86-.06,4.23-1.72,3.84-5.21-.51-4.53,1.82-6,6.51-5a18.76,18.76,0,0,0,5.92.5c1.48,0,2.35,1,3.25,2,1.41,1.5,2,2.84,4.11-.09S94.71,43,98.11,41.9C99.87,30,110.16,30.54,118,29.57c16.74-2.07,33.62-2.58,50.2,2.26,4,1.17,7.69,2,7.68,7.2a3.21,3.21,0,0,0,1.86,2.78c2,.29,3.84,1,5.87,1,2.69-.11,4.85.67,5.33,3.7,2.83-.76,3.55-4.11,6.45-4a20.57,20.57,0,0,0,5.9-.47c5-1.07,7.09.73,6.82,5.83-.06,1.16-.64,2.21-.65,3.79,5.89-.9,6.93,3.38,8,7.64.7,2.22-.34,4.14-1.13,6.07s-.8,3.44.81,4.83c-1.82,4.22.65,7.75,2.12,11.27,4.32,10.39,11,18.14,23.19,19a30.36,30.36,0,0,0,12.2-1.76c1.39-.49,3-1.46,3.23,1.13.59,7.21,1.36,14.48-3,21-5.45.34-5.57.34-5.25-5.64.19-3.47-1.16-4.81-4.59-4.81-13.92,0-26.72-7.47-29.72-23.6-.62-3.31-2.65-5.21-5.77-6.24a24.65,24.65,0,0,0-6.86-1.15c-7.06-.27-7.63-1.38-3.8-8-12.31-.27-23,3.89-33.06,10.08-1,.61-1.88,1.39-2.89,2C157.64,85.24,156,84.68,156,81c0-4.56-1.85-3.5-4.5-2.34-4.28,1.88-6,4.86-6.38,9.67-.51,6.58-.15,13.32-2.2,19.74-2.86.42-1.82,3.14-2.71,4.72s-.86,3.52-2.63,4.84c-2.89-2.57-2.17-6.81-4.5-9.54-2.36-4.4-2.27-9.23-2.41-14-.05-2,0-4,0-6a10.92,10.92,0,0,0-9-10.36c-1.6-.29-1.94.51-2.41,1.73-1.89,4.92-2.31,5.09-6.94,2.31A76.26,76.26,0,0,0,90.9,72.55a36.55,36.55,0,0,0-11.79-1.13c-.38.27-.47.56-.28.87,1,1.64,3.34,2.95,2.42,5.13-1,2.44-3.7,1.73-5.77,2C69,80,64.19,81.89,62.13,89.49c-3.53,13-14.21,20.35-28,20.76-3.68.12-6.24.62-5.81,5.19.18,1.87,1.34,4.3-.66,5.6C25.35,122.53,24,119.51,21.92,119.09Z" transform="translate(-6.12 -5.07)"/><path class="cls-2" d="M87.83,205.8c5.79-4.92,12.87-5.69,20-6.3,2.06-.18,2.88,1.37,4.2,2.26,3,2,5.59,5.8,9.69,1.58,1.19-1.22,2.42.12,3.56.73,8.26,4.45,16.54,4.34,24.79,0,1.34-.71,2.73-2,4-.47,2.69,3.24,5.22,1.57,7.23-.36,6-5.81,12.84-3.38,19.12-1.47a35.78,35.78,0,0,1,14.47,9c.07-4.59-3.09-6.91-5.92-9.6,8-3.49,14.89-2.17,21.28,3.16,1.57,1.31,1.52,2.1.24,3.56-10.07,11.48-21.45,21.33-34.93,28.65-3.17,1.71-6.75,1.66-10.14,2.43-10.92,2.45-21.54,5.56-31.09,11.73-3.4,2.19-3.82,4.22-1.82,7.68,3.12,5.43,7.67,9.54,12.55,14.42-7.83.76-14.06-3.82-21-3.76a4,4,0,0,1-3.66-1.12c-12.21-11.07-19.93-28-15.65-45.25.44-1.76.75-3.6,2.24-4.89a4.17,4.17,0,0,1,2.91.27c19.92,8.45,40,6.21,60.12.88a128.22,128.22,0,0,0,17.55-6.1c-6.19-2.82-12-2.58-18.18,0-10.28,4.29-21.24,4.81-32.29,4.85-14.64.05-28.69-3-42.65-6.88C91.61,209.94,89.14,208.63,87.83,205.8Z" transform="translate(-6.12 -5.07)"/><path class="cls-3" d="M21.92,119.09c.46-.43-.1-2,1.32-1.28s2.06,2.63,4,2.71c.17-.35.46-.64.42-.89-1.55-9.89-1.56-9.89,8.51-10.67C48.29,108,58.33,100.59,61,88.59c1.61-7.3,6.16-9,12-10.43,2.51-.61,6.34,1.22,7.28-1.24.85-2.23-3.28-3.69-4.54-6.54C84.25,69,92.12,71,99.84,73.93a76.09,76.09,0,0,1,13.3,6.79c1.35.84,2.66,2.8,4.28,1.8s.56-3.06.64-4.66c0-.79.15-1.58.25-2.59,4.63.79,8.06,3.53,11.82,5.55a3.49,3.49,0,0,1,1.7,3.4c-.38,8,.65,15.94,1.26,23.89-1.48,1.57-3.4,2.92-4.33,4.77-2.07,4.13-4.34,3-7.06.92-5.43-4.12-9-9.64-12.17-16-2.76,2.39-1.13,5.47-2.17,8.39-6.54-5.59-13.48-10-21.88-11.46a51.55,51.55,0,0,0-7.41-.83,32.49,32.49,0,0,0-8.44.53c-3.46.86-1.59,4.54-2.8,6.79-5.52,10.25-14.35,15.54-25.46,17.12-3.72.53-3.83,1.47-2.65,4.55,7.23,18.88,18.94,33.88,37.15,43.38-.57,2-2.14,2.46-3.73,2.88-1.53.73-3,0-4.32-.47a78.08,78.08,0,0,1-32.89-24.9c-.66-.84-.49-1.9-.8-2.83C29.28,134.1,24.44,127.24,21.92,119.09Z" transform="translate(-6.12 -5.07)"/><path class="cls-3" d="M142.93,108.09c-1.24-1.87-.39-3.75-.21-5.7.53-5.46,1-10.94,1-16.41,0-3.07,1-5.11,3.61-6.51a39.67,39.67,0,0,1,10.06-4.33c.9,2.94-2.2,6.45.64,8,1.14.61,4.2-2.49,6.45-3.77,10.7-6.08,21.9-10.31,34.72-9.19a4.73,4.73,0,0,1-.39,1.47c-1.33,1.68-4.1,3.35-3.35,5.2,1,2.42,4.15.94,6.33,1.09,8.54.62,11.14,2.61,13.31,10.82A26.66,26.66,0,0,0,240,109c10.13.59,10.18.66,8.28,10.66,1,3.26,4.28-5.41,4.59,1.09a67.21,67.21,0,0,1-10.74,19.34c-1,3.41-3.11,6-5.5,8.59-7.56,8.06-16,14.9-26.13,19.48-2.18,1-4.29,1.76-6.68,1.07a5.33,5.33,0,0,1-3.75-2.74c18-9.31,29.22-24.17,36.4-42.58,1.51-3.86,1.52-5.29-3.14-5.7-7.91-.7-14.42-4.7-20-10.24-2.52-2.5-5-5.45-5.11-8.91-.11-4.55-2.44-5-6-5.16-12.85-.62-19.09,1.49-34.19,12-.74-2.59.49-5.45-1.4-7.71-2.13.46-2,2.72-3,4-1.2,1.59-2.12,3.38-3.36,4.94-2.6,3.26-5.25,7.12-9.29,8C146.18,116.26,146.23,109.89,142.93,108.09Z" transform="translate(-6.12 -5.07)"/><path class="cls-4" d="M106.08,158.89l2.42-5.2c2.14,2,1.48,4.92,3.6,7.32,2.71-7.77,4.79-15.59,10.79-21.27a2.87,2.87,0,0,1,2.72.79c6.24,5.13,10.1,18.48,7.61,26.3-1.26,2.18-3.89,2.43-5.63,4-1.54,1.34-3,2.78-2.71,5,.3,2.45,2.17,3.1,4.26,3.48a5.88,5.88,0,0,1,5.14,4.75,3.51,3.51,0,0,0,3.59,2.88,3.77,3.77,0,0,0,3.9-2.55c1.1-2.88,3.29-4.38,6-5.55,4.23-1.82,4.43-4.77.83-7.9-2-1.73-5.11-1.84-6.42-4.52-2.88-8.56,0-16.07,4.49-23.12,1.31-2,2.81-4.83,6.27-3.41,5.54,5.88,8,13.31,10.31,21,2.34-1.84,1.81-4.71,3.55-7.46A32.94,32.94,0,0,1,171,170.51c0,1.73-1.62,1.31-2.69,1.33a80.65,80.65,0,0,0-9.91.47c2.86,2.32,6.4,1.8,9.59,2.21s3.11,2,2.9,4.39-.75,4.11-3.85,3.68c-2.79-.39-5.57-2.11-8.54-.27,1.91,2,4.82,1.54,7.09,2.63,1.26.61,3.9.11,2.72,2.86-.85,2-1.24,4.71-4.78,3.53-2.48-.82-5.16-1-8.7-1.7,2.88,3.29,6.57,2.91,9,4.79-4.56,6.43-5,6.54-10.69,2.65-10.85-7.46-20.63-7.21-31.85.69-1.47,1-2.76,3.42-5.1,1.59-1.67-1.3-4.22-2.51-4-4.64.12-1.56,2.94-1.52,4.55-2.21A6.48,6.48,0,0,0,120,190a58.8,58.8,0,0,0-8.11,1.46c-3.62,1.16-3.9-1.71-4.71-3.63-1.14-2.7,1.6-2.39,2.85-2.85,3-1.12,6.2-1.93,9.22-3.31-3.78-.93-7.38.06-10.91.83-3,.66-3.55-.8-3.53-3.1,0-1.86-1.63-4.53,2.34-4.57a32.3,32.3,0,0,0,5.77-1.06c2.66-2.25-1.39-.74-1-1.73h-5c-2,.59-3.36-.13-3-2.31C104.72,166.09,104.36,162.29,106.08,158.89Z" transform="translate(-6.12 -5.07)"/><path class="cls-3" d="M106.89,218.22c-2.14,9.16-3.33,18.29.13,27.45C110.56,255,116,263,124,269c5.11,5.24,11.69,8.46,17.43,12.8-29.76-7.21-53.5-22.4-63.52-52.74-2.79-8.44-5.69-15.22-13-20a9.83,9.83,0,0,1-1.86-2.25A2,2,0,0,1,64,204.2c1.93-.84,3.94-1.55,5.79-2.55,5.84-3.17,9.19-3.27,16-.08l-5.68,6.88c2.57.28,2.57.28,7.76-2.65,2.42.87,4.18,2.69,6.14,4.21C98.85,211.85,103.41,214.18,106.89,218.22Z" transform="translate(-6.12 -5.07)"/><path class="cls-5" d="M215.17,70.13c-2.8,1.51-3.67.47-3.08-2.37s2.83-4.88,2.87-7.82c-1-5.12,1.75-9.66,2.25-14.59a97.17,97.17,0,0,0,.32-15.44c-.22-3.81-1.5-4.36-4.78-2.47-5.26,3-9.48,7.28-13.36,11.88-1.27,1.51-2.25,3.38-4.54,3.61-1.16,1.35-2.14,3-3.55,4-1.56,1.11-4.44,4.65-4.09-1.28.14-2.41-1.8-1.28-2.86-1.41-2.4-.3-5.11.39-6.57-2.41,10.24-12.28,21.69-23,37.28-28.16,6.45-2.13,6.67-2,9.09,4.26,4.46,11.48,3,22.9-.57,34.2A72,72,0,0,1,215.17,70.13Z" transform="translate(-6.12 -5.07)"/><path class="cls-6" d="M60.93,61.13c-.35,2.57,2,4,2.55,6.23s1.35,4.6-2.57,3.7C53.19,58.52,47.28,45.07,49,30.19,51.42,9,53,9.45,69.88,17.77c11.35,5.59,20,14.74,28.23,24.13-1.66,1.9-3.87,2.28-6.22,2.28-2.17,0-4.33-.5-3.4,3.26.56,2.22-1.62,1.57-2.54.8-1.85-1.54-3.45-3.37-5.16-5.08-2.78-.2-3.75-2.62-5-4.42-3.49-4.86-8.25-8.16-13.12-11.37-2.49-1.64-3.88-.95-4.62,1.93-1.64,6.39.36,12.53,1,18.78C59.45,52.47,62.36,56.48,60.93,61.13Z" transform="translate(-6.12 -5.07)"/><path class="cls-2" d="M34.13,141c10,13.05,22.4,22.77,38,28.2-1.42,1.45-3.59.53-5.24,1.71-.36,2,2.28,2.1,2.6,4-5.48,2.4-10.5,2.91-16.12-.78a89.59,89.59,0,0,1-31.55-35.28C26.33,139.11,29.76,143.18,34.13,141Z" transform="translate(-6.12 -5.07)"/><path class="cls-7" d="M203.81,169.22c15.19-4.88,26.8-14.6,36.43-27,.59-.76.83-1.8,1.88-2.17-.22,1.7.67,2,2.06,1.59,3-.94,5.94-1.92,9.68-3.14-6.19,12.1-14,22.08-24.24,30.08-2.61,2-5.51,3.69-8.15,5.69-4.63,3.51-9.35,3.15-14.66.61l4.2-3.19Z" transform="translate(-6.12 -5.07)"/><path class="cls-2" d="M132.11,167.13c3-11.14-2-19.57-9.22-27.25A13.8,13.8,0,0,1,128,134c2.91-1.86,5.57-1.42,7.86,1.34.67.8,1.06,2.46,3,1.13,6.53-4.46,7.44-4.26,12.72,1.58a18.37,18.37,0,0,1,1.36,2c-6.72,2.49-7.68,9-9.86,14.49-1.59,4-.31,8.21,0,12.32C139.49,169.34,135.82,169,132.11,167.13Z" transform="translate(-6.12 -5.07)"/><path class="cls-6" d="M236.21,230.73c-5.4-7.62-5.85-16.1-1-23.07,2.69-3.88,3.87-8,2.71-12.21-.74-2.72,3.66-5.6-.48-8-.11-.07,2.29-1.49,3.4-2.46s1.88-.72,3,.15c6.43,4.84,9.88,15.36,7.38,23-.41,1.24-.63,2.59-2,3.32C241.85,215.43,238.36,222.22,236.21,230.73Z" transform="translate(-6.12 -5.07)"/><path class="cls-8" d="M271.21,196.75c-.47-4.66-.7-9.25-1.41-13.76-1.72-10.86-6.88-15.81-17.7-16.8-2.7-.25-4.36-1-5.15-3.74a48.58,48.58,0,0,1,14.87-3.68c5.06-.55,7.83,1.74,10.41,5.74C278,173.49,279.15,188.61,271.21,196.75Z" transform="translate(-6.12 -5.07)"/><path class="cls-9" d="M118.12,130.69c.17,6.25-2.17,10.62-7.76,12.88a47.65,47.65,0,0,0-11.94,7.1c-.91-2.81,1.42-4.09,2.33-6.41-9.24-1.16-15.47-6.64-20.32-14.08-1.91-2.94-5.33-3.12-8.25-4.15-2.29-.82-4.67-1.41-7-2.93,2.67,0,5.34.1,8,0,5.05-.22,9.27.29,11.74,5.94,1.62,3.72,5.14,6.45,8.82,8.56,8.44,4.86,15.43,3.45,21.4-4.29C115.87,132.42,116.16,131.13,118.12,130.69Z" transform="translate(-6.12 -5.07)"/><path class="cls-10" d="M157.53,129.44c1.53,1.94,2.34,2.93,3.11,3.94,5.92,7.78,13.49,9.1,21.73,3.75a25,25,0,0,0,9.18-9.66c1.59-3.21,3.84-4.28,7-4.28a68.3,68.3,0,0,1,11.59.66c-10.88.32-16.29,8.47-22.9,15-3.42,3.35-7.91,4.77-12.73,5.35.86,2.2,3.41,3.44,3,6.13C159.31,141.12,158.07,139.9,157.53,129.44Z" transform="translate(-6.12 -5.07)"/><path class="cls-11" d="M75.58,190.71c3-2.19,6.82-2.32,8.57-6.19a63.52,63.52,0,0,1-13.69-3.06,52.43,52.43,0,0,1,20.59-2.7,36.74,36.74,0,0,0,6.45-.43c2-.24,2.76.69,3,2.41.2,1.25,1,2.79-.82,3.39-7.4,2.4-14.83,4.71-22.27,7C77,191.26,76.49,190.93,75.58,190.71Z" transform="translate(-6.12 -5.07)"/><path class="cls-12" d="M204.55,181.56a50.43,50.43,0,0,1-13.44,2.89c1.73,3.85,5.76,4,8.46,6.05-2,1.19-3.47.51-5-.14a104,104,0,0,0-16.5-5.5c-1.82-.43-4-.53-3.29-3.67.58-2.73,1.89-2.89,4.22-2.6,7.07.89,14.3-.7,21.3,1.39C201.72,180.4,203.27,180.39,204.55,181.56Z" transform="translate(-6.12 -5.07)"/><path class="cls-13" d="M64,204.2l-.87,2.63c-5.12-4.14-8.45-9.58-12.31-16.45l18.29,6.44C68,200.08,64.06,200.78,64,204.2Z" transform="translate(-6.12 -5.07)"/><path class="cls-14" d="M110.63,134.53c-7.74,4.3-16,1.08-21.67-8.13C93.6,126,105.76,130.51,110.63,134.53Z" transform="translate(-6.12 -5.07)"/><path class="cls-14" d="M186.53,125.84c-6.86,10.17-14.13,13-21.94,8.58C171.36,129.36,179.11,127.9,186.53,125.84Z" transform="translate(-6.12 -5.07)"/><path class="cls-15" d="M222.57,193.26c-2.62,3.26-5,6-7.1,8.86-1.84,2.48-3.05,2-4.86-.18-4.31-5.2-4.42-5.13,2.25-7,2.55-.71,5.11-1.35,7.68-2A8.3,8.3,0,0,1,222.57,193.26Z" transform="translate(-6.12 -5.07)"/><path class="cls-16" d="M237.64,178.86c1.17-3.85-.9-7.61,2.94-10.44,2.7-2,3.28-.83,4,1.32C246.17,174.19,244.43,176.62,237.64,178.86Z" transform="translate(-6.12 -5.07)"/><path class="cls-17" d="M185.68,192.85c-3.65,0-7.3.1-10.94,0-1.22-.05-3.46.42-2.85-2.1.45-1.85,1.37-3.4,3.9-2.38,3.33,1.36,6.74,2.52,10.11,3.77Z" transform="translate(-6.12 -5.07)"/><path class="cls-18" d="M89.92,192c3.47-1.27,6.93-2.57,10.41-3.81,2.36-.83,3,1.07,3.28,2.58.43,1.95-1.29,2-2.56,2-3.61.06-7.21,0-10.82,0Z" transform="translate(-6.12 -5.07)"/><path class="cls-19" d="M59.26,185.68c-2.5,1.8-5.2,1.71-7.64,2.44-.78.24-1.64.47-2-.6s.39-1.44,1.23-1.63C53.5,185.3,56.15,183.3,59.26,185.68Z" transform="translate(-6.12 -5.07)"/><path class="cls-20" d="M217,185.54c.67-.64.77-.82.91-.85,3.13-.72,5.73.88,8.38,2.06.6.26.2,1.5-.39,1.59C222.57,188.84,220,186.9,217,185.54Z" transform="translate(-6.12 -5.07)"/><path class="cls-21" d="M231.74,176.13c-.78,6.18-1.64,6.77-6.34,4.31Z" transform="translate(-6.12 -5.07)"/><path class="cls-22" d="M106.08,159c-.47,3.29-.87,6.58-1.42,9.85-.35,2,.06,3.25,2.34,3.26-2.13,1.56-4.09.44-3.66-1.53C104.18,166.75,102.93,162.32,106.08,159Z" transform="translate(-6.12 -5.07)"/><path class="cls-22" d="M112,172h6.59c-2.19,2.17-3.92,1.88-5.62,1.73Z" transform="translate(-6.12 -5.07)"/><path class="cls-23" d="M46.18,178.48c2.08.2,3.26.77,3.61,2.3.05.22-1,1-1.48,1C46.06,181.67,46.87,179.9,46.18,178.48Z" transform="translate(-6.12 -5.07)"/><path class="cls-24" d="M60.93,61.13c-3-10.68-6-21.38-4.15-32.67.84-5.16,1.13-5.16,5.83-2.62,7.65,4.13,13,10.64,18.18,17.32-2.17,1.73-4.55.94-6.59.08-4.53-1.92-5,.89-5,4,0,1.76.76,3.51,1.23,5.49a12.14,12.14,0,0,1-2.89.28c-3.4-.48-4.91.87-4.86,4.33C62.72,58.77,62.81,60.51,60.93,61.13Z" transform="translate(-6.12 -5.07)"/><path class="cls-25" d="M194.85,42.93c5.14-6.51,10.39-12.89,17.81-17,5-2.79,5.49-2.59,6.24,3.27,1.22,9.55-.64,18.78-3.13,27.92-.26,1-.54,1.91-.81,2.86-.37-.3-1.05-.59-1.06-.89-.1-5.4-3.08-7.06-7.94-5.91-.7-2,.75-3,.93-4.46.65-5.08-.73-6.35-5.64-5.25C199.13,43.91,196.82,45.13,194.85,42.93Z" transform="translate(-6.12 -5.07)"/><path class="cls-26" d="M106.89,218.22A87.59,87.59,0,0,1,94,210c1.83-1.7,3.46,0,5,.47,20.62,5.77,41.39,8.29,62.56,3.38a59.48,59.48,0,0,0,7.15-2.17c9.91-3.64,11.85-3.6,22.84,1.17C163.29,223.88,135.78,231,106.89,218.22Z" transform="translate(-6.12 -5.07)"/><path class="cls-27" d="M132.11,167.13l11-.29c2.5,1.29,5.37,1.89,7.41,4,1.71,1.78,2.75,3.79,2,6.32s-2.35,3.31-4.87,3.37c-2.27,0-4.56,1.11-4.48,3.73.12,4.13-3.06,4.18-5.34,4.12-2-.06-5.17-.05-4.62-4.16.36-2.69-2.27-3.65-4.45-3.67-2.7,0-4.42-.73-5.14-3.51a5.91,5.91,0,0,1,2.44-6.58A47.61,47.61,0,0,1,132.11,167.13Z" transform="translate(-6.12 -5.07)"/><path class="cls-28" d="M137.71,169.84c2.71.23,7-.3,7,2.79,0,3.53-4.27,3.29-7.1,3.24-2.49-.05-6.35.14-6.29-3.07S135.16,170.09,137.71,169.84Z" transform="translate(-6.12 -5.07)"/></svg>